<svg width="103" height="134" viewBox="0 0 103 134" fill="none" xmlns="http://www.w3.org/2000/svg">
    <path d="M60.3446 21.848H22.5577C19.5764 21.848 17.1595 24.2648 17.1595 27.2462V65.0331C17.1595 68.0144 19.5764 70.4312 22.5577 70.4312H60.3446C63.3259 70.4312 65.7428 68.0144 65.7428 65.0331V27.2462C65.7428 24.2648 63.3259 21.848 60.3446 21.848Z" stroke="#5C1111" stroke-width="4.81618" stroke-linecap="round" stroke-linejoin="round"/>
    <path d="M52.2476 16.4498V27.2461" stroke="#5C1111" stroke-width="4.81618" stroke-linecap="round" stroke-linejoin="round"/>
    <path d="M30.655 16.4498V27.2461" stroke="#5C1111" stroke-width="4.81618" stroke-linecap="round" stroke-linejoin="round"/>
    <path d="M17.1595 38.0424H65.7428" stroke="#5C1111" stroke-width="4.81618" stroke-linecap="round" stroke-linejoin="round"/>
    <path d="M33.3541 54.2366L38.7523 59.6348L49.5485 48.8385" stroke="#5C1111" stroke-width="4.81618" stroke-linecap="round" stroke-linejoin="round"/>
    <g filter="url(#filter0_ddddd_104_2)">
        <path d="M12.181 103.617L9.21851 95.8213L27.9292 87.0896L66.754 71.4973L93.1049 88.8047L91.3898 103.617H12.181Z" fill="#AC4DD9" stroke="black" stroke-width="0.963236"/>
        <path d="M12.181 103.617L9.21851 95.9771L27.9292 87.0895L32.6069 103.461L12.181 103.617Z" fill="#540D75" stroke="black" stroke-width="0.963236"/>
        <path d="M9.0625 95.6652L25.7894 67.212L27.9291 87.0894L9.21842 95.977L9.0625 95.6652Z" fill="#470068" stroke="black" stroke-width="0.481618"/>
        <path d="M27.9291 87.0896L25.9021 66.8197L67.5335 56.2169L66.5979 71.4973L27.9291 87.0896Z" fill="#732E94" stroke="black" stroke-width="0.963236"/>
        <path d="M66.598 71.4971L67.9466 56.3527L93.1049 88.8045L66.598 71.4971Z" fill="#C279E4" stroke="black" stroke-width="0.481618"/>
        <path d="M9.0625 95.6652L25.7462 66.8195L67.9465 56.0808L93.1049 88.8046L66.598 71.4972L27.9291 87.0895L9.21842 95.9771L9.0625 95.6652Z" stroke="black" stroke-width="0.963236"/>
        <path d="M26.0579 103.617L27.9289 87.0895L32.7625 103.617H26.0579Z" fill="#61018E" stroke="black" stroke-width="0.963236"/>
    </g>
    <defs>
        <filter id="filter0_ddddd_104_2" x="0.0874329" y="53.8502" width="101.958" height="79.8707" filterUnits="userSpaceOnUse" color-interpolation-filters="sRGB">
            <feFlood flood-opacity="0" result="BackgroundImageFix"/>
            <feColorMatrix in="SourceAlpha" type="matrix" values="0 0 0 0 0 0 0 0 0 0 0 0 0 0 0 0 0 0 127 0" result="hardAlpha"/>
            <feOffset/>
            <feColorMatrix type="matrix" values="0 0 0 0 0 0 0 0 0 0 0 0 0 0 0 0 0 0 0.1 0"/>
            <feBlend mode="normal" in2="BackgroundImageFix" result="effect1_dropShadow_104_2"/>
            <feColorMatrix in="SourceAlpha" type="matrix" values="0 0 0 0 0 0 0 0 0 0 0 0 0 0 0 0 0 0 127 0" result="hardAlpha"/>
            <feOffset dy="1.20405"/>
            <feGaussianBlur stdDeviation="1.44485"/>
            <feColorMatrix type="matrix" values="0 0 0 0 0 0 0 0 0 0 0 0 0 0 0 0 0 0 0.1 0"/>
            <feBlend mode="normal" in2="effect1_dropShadow_104_2" result="effect2_dropShadow_104_2"/>
            <feColorMatrix in="SourceAlpha" type="matrix" values="0 0 0 0 0 0 0 0 0 0 0 0 0 0 0 0 0 0 127 0" result="hardAlpha"/>
            <feOffset dy="5.2978"/>
            <feGaussianBlur stdDeviation="2.6489"/>
            <feColorMatrix type="matrix" values="0 0 0 0 0 0 0 0 0 0 0 0 0 0 0 0 0 0 0.09 0"/>
            <feBlend mode="normal" in2="effect2_dropShadow_104_2" result="effect3_dropShadow_104_2"/>
            <feColorMatrix in="SourceAlpha" type="matrix" values="0 0 0 0 0 0 0 0 0 0 0 0 0 0 0 0 0 0 127 0" result="hardAlpha"/>
            <feOffset dy="11.7996"/>
            <feGaussianBlur stdDeviation="3.61213"/>
            <feColorMatrix type="matrix" values="0 0 0 0 0 0 0 0 0 0 0 0 0 0 0 0 0 0 0.05 0"/>
            <feBlend mode="normal" in2="effect3_dropShadow_104_2" result="effect4_dropShadow_104_2"/>
            <feColorMatrix in="SourceAlpha" type="matrix" values="0 0 0 0 0 0 0 0 0 0 0 0 0 0 0 0 0 0 127 0" result="hardAlpha"/>
            <feOffset dy="21.1912"/>
            <feGaussianBlur stdDeviation="4.21416"/>
            <feColorMatrix type="matrix" values="0 0 0 0 0 0 0 0 0 0 0 0 0 0 0 0 0 0 0.01 0"/>
            <feBlend mode="normal" in2="effect4_dropShadow_104_2" result="effect5_dropShadow_104_2"/>
            <feBlend mode="normal" in="SourceGraphic" in2="effect5_dropShadow_104_2" result="shape"/>
        </filter>
    </defs>
</svg>
